<?xml version="1.0" encoding="utf-8"?>
<!-- Generator: Adobe Illustrator 12.0.0, SVG Export Plug-In . SVG Version: 6.00 Build 51448)  -->
<!DOCTYPE svg PUBLIC "-//W3C//DTD SVG 1.0//EN" "http://www.w3.org/TR/2001/REC-SVG-20010904/DTD/svg10.dtd" [
	<!ENTITY ns_svg "http://www.w3.org/2000/svg">
	<!ENTITY ns_xlink "http://www.w3.org/1999/xlink">
]>
<svg  version="1.0" id="Layer_1" xmlns="&ns_svg;" xmlns:xlink="&ns_xlink;" width="254" height="254.001"
	 viewBox="0 0 254 254.001" overflow="visible" enable-background="new 0 0 254 254.001" xml:space="preserve">
<g>
	<linearGradient id="XMLID_2_" gradientUnits="userSpaceOnUse" x1="126.9995" y1="27.6782" x2="126.9995" y2="226.3223">
		<stop  offset="0" style="stop-color:#444444"/>
		<stop  offset="0.0111" style="stop-color:#555555"/>
		<stop  offset="0.0333" style="stop-color:#6F6F6F"/>
		<stop  offset="0.0588" style="stop-color:#858585"/>
		<stop  offset="0.0885" style="stop-color:#969696"/>
		<stop  offset="0.1253" style="stop-color:#A2A2A2"/>
		<stop  offset="0.1769" style="stop-color:#A9A9A9"/>
		<stop  offset="0.3202" style="stop-color:#ABABAB"/>
		<stop  offset="1" style="stop-color:#878787"/>
	</linearGradient>
	<path fill="url(#XMLID_2_)" d="M252,210.987c0,1.758-18.332,15.334-37.666,15.334c-33.334,0-27.334-24.955-96-3.666
		c-38.229,11.852-43.713-14.352-73.994-13.102C17.667,210.655,2,227.917,2,224.054V34.678c0-3.867,3.136-7,7-7h236
		c3.865,0,7,3.133,7,7V210.987z"/>
	<g>
		<g opacity="0.5">
			<rect x="108.003" y="159.433" fill="#A6A8AB" width="124.326" height="20.662"/>
			<rect x="108.003" y="100.095" fill="#A6A8AB" width="124.326" height="20.662"/>
		</g>
		<g opacity="0.5185">
			<rect x="108.133" y="159.022" fill="#A3A5A8" width="124.066" height="20.619"/>
			<rect x="108.133" y="99.808" fill="#A3A5A8" width="124.066" height="20.619"/>
		</g>
		<g opacity="0.537">
			<rect x="108.262" y="158.612" fill="#A0A2A5" width="123.809" height="20.576"/>
			<rect x="108.262" y="99.521" fill="#A0A2A5" width="123.809" height="20.576"/>
		</g>
		<g opacity="0.5556">
			<rect x="108.392" y="158.201" fill="#9D9FA2" width="123.549" height="20.532"/>
			<rect x="108.392" y="99.234" fill="#9D9FA2" width="123.549" height="20.533"/>
		</g>
		<g opacity="0.5741">
			<rect x="108.521" y="157.79" fill="#9A9C9F" width="123.291" height="20.49"/>
			<rect x="108.521" y="98.947" fill="#9A9C9F" width="123.291" height="20.49"/>
		</g>
		<g opacity="0.5926">
			<rect x="108.651" y="157.38" fill="#98999C" width="123.031" height="20.447"/>
			<rect x="108.651" y="98.66" fill="#98999C" width="123.031" height="20.447"/>
		</g>
		<g opacity="0.6111">
			<rect x="108.781" y="156.97" fill="#959699" width="122.771" height="20.403"/>
			<rect x="108.781" y="98.373" fill="#959699" width="122.771" height="20.404"/>
		</g>
		<g opacity="0.6296">
			<rect x="108.91" y="156.559" fill="#929496" width="122.514" height="20.36"/>
			<rect x="108.91" y="98.086" fill="#929496" width="122.514" height="20.361"/>
		</g>
		<g opacity="0.6481">
			<rect x="109.04" y="156.147" fill="#8F9193" width="122.254" height="20.318"/>
			<rect x="109.04" y="97.799" fill="#8F9193" width="122.254" height="20.318"/>
		</g>
		<g opacity="0.6667">
			<rect x="109.168" y="155.737" fill="#8C8E90" width="121.996" height="20.274"/>
			<rect x="109.168" y="97.512" fill="#8C8E90" width="121.996" height="20.275"/>
		</g>
		<g opacity="0.6852">
			<rect x="109.298" y="155.327" fill="#898B8D" width="121.736" height="20.23"/>
			<rect x="109.298" y="97.225" fill="#898B8D" width="121.736" height="20.232"/>
		</g>
		<g opacity="0.7037">
			<rect x="109.428" y="154.916" fill="#86888A" width="121.477" height="20.188"/>
			<rect x="109.428" y="96.938" fill="#86888A" width="121.477" height="20.189"/>
		</g>
		<g opacity="0.7222">
			<rect x="109.557" y="154.505" fill="#838587" width="121.219" height="20.146"/>
			<rect x="109.557" y="96.65" fill="#838587" width="121.219" height="20.146"/>
		</g>
		<g opacity="0.7407">
			<rect x="109.687" y="154.095" fill="#808284" width="120.959" height="20.103"/>
			<rect x="109.687" y="96.363" fill="#808284" width="120.959" height="20.103"/>
		</g>
		<g opacity="0.7593">
			<rect x="109.816" y="153.684" fill="#7E7F82" width="120.701" height="20.06"/>
			<rect x="109.816" y="96.077" fill="#7E7F82" width="120.701" height="20.059"/>
		</g>
		<g opacity="0.7778">
			<rect x="109.946" y="153.272" fill="#7B7C7F" width="120.441" height="20.018"/>
			<rect x="109.946" y="95.79" fill="#7B7C7F" width="120.441" height="20.016"/>
		</g>
		<g opacity="0.7963">
			<rect x="110.075" y="152.862" fill="#78797C" width="120.184" height="19.974"/>
			<rect x="110.075" y="95.502" fill="#78797C" width="120.184" height="19.973"/>
		</g>
		<g opacity="0.8148">
			<rect x="110.205" y="152.452" fill="#757679" width="119.924" height="19.93"/>
			<rect x="110.205" y="95.215" fill="#757679" width="119.924" height="19.93"/>
		</g>
		<g opacity="0.8333">
			<rect x="110.334" y="152.041" fill="#727376" width="119.664" height="19.888"/>
			<rect x="110.334" y="94.928" fill="#727376" width="119.664" height="19.887"/>
		</g>
		<g opacity="0.8519">
			<rect x="110.463" y="151.63" fill="#6F7073" width="119.406" height="19.844"/>
			<rect x="110.463" y="94.641" fill="#6F7073" width="119.406" height="19.844"/>
		</g>
		<g opacity="0.8704">
			<rect x="110.593" y="151.22" fill="#6C6D70" width="119.146" height="19.801"/>
			<rect x="110.593" y="94.354" fill="#6C6D70" width="119.146" height="19.801"/>
		</g>
		<g opacity="0.8889">
			<rect x="110.722" y="150.809" fill="#696B6D" width="118.889" height="19.758"/>
			<rect x="110.722" y="94.067" fill="#696B6D" width="118.889" height="19.758"/>
		</g>
		<g opacity="0.9074">
			<rect x="110.852" y="150.398" fill="#66686A" width="118.629" height="19.716"/>
			<rect x="110.852" y="93.78" fill="#66686A" width="118.629" height="19.715"/>
		</g>
		<g opacity="0.9259">
			<rect x="110.982" y="149.988" fill="#646567" width="118.369" height="19.672"/>
			<rect x="110.982" y="93.493" fill="#646567" width="118.369" height="19.672"/>
		</g>
		<g opacity="0.9444">
			<rect x="111.111" y="149.577" fill="#616264" width="118.111" height="19.629"/>
			<rect x="111.111" y="93.206" fill="#616264" width="118.111" height="19.629"/>
		</g>
		<g opacity="0.963">
			<rect x="111.241" y="149.167" fill="#5E5F61" width="117.852" height="19.586"/>
			<rect x="111.241" y="92.919" fill="#5E5F61" width="117.852" height="19.586"/>
		</g>
		<g opacity="0.9815">
			<rect x="111.37" y="148.756" fill="#5B5C5E" width="117.594" height="19.543"/>
			<rect x="111.37" y="92.632" fill="#5B5C5E" width="117.594" height="19.543"/>
		</g>
		<g>
			<rect x="111.5" y="148.345" fill="#58595B" width="117.334" height="19.5"/>
			<rect x="111.5" y="92.345" fill="#58595B" width="117.334" height="19.5"/>
		</g>
	</g>
	<g>
		<rect x="111.5" y="148.345" fill="#FFFFFF" width="117.334" height="19.5"/>
		<rect x="111.5" y="92.345" fill="#FFFFFF" width="117.334" height="19.5"/>
	</g>
	<g>
		<g opacity="0.5">
			<g>
				<polygon fill="#A6A8AB" points="86.839,93.59 73.755,80.509 53.25,101.013 32.745,80.509 19.661,93.59 40.167,114.095 
					19.661,134.6 32.745,147.683 53.25,127.178 73.755,147.683 86.839,134.6 66.333,114.095 				"/>
			</g>
		</g>
		<polygon opacity="0.5185" fill="#A3A5A8" points="86.839,93.146 73.755,80.064 53.25,100.568 32.745,80.064 19.661,93.146 
			40.167,113.651 19.661,134.156 32.745,147.239 53.25,126.734 73.755,147.239 86.839,134.156 66.333,113.651 		"/>
		<polygon opacity="0.537" fill="#A0A2A5" points="86.839,92.701 73.755,79.62 53.25,100.124 32.745,79.62 19.661,92.701 
			40.167,113.207 19.661,133.711 32.745,146.794 53.25,126.29 73.755,146.794 86.839,133.711 66.333,113.207 		"/>
		<polygon opacity="0.5556" fill="#9D9FA2" points="86.839,92.256 73.755,79.175 53.25,99.679 32.745,79.175 19.661,92.256 
			40.167,112.762 19.661,133.267 32.745,146.35 53.25,125.845 73.755,146.35 86.839,133.267 66.333,112.762 		"/>
		<polygon opacity="0.5741" fill="#9A9C9F" points="86.839,91.812 73.755,78.731 53.25,99.235 32.745,78.731 19.661,91.812 
			40.167,112.317 19.661,132.822 32.745,145.905 53.25,125.4 73.755,145.905 86.839,132.822 66.333,112.317 		"/>
		<polygon opacity="0.5926" fill="#98999C" points="86.839,91.368 73.755,78.287 53.25,98.791 32.745,78.287 19.661,91.368 
			40.167,111.873 19.661,132.378 32.745,145.461 53.25,124.956 73.755,145.461 86.839,132.378 66.333,111.873 		"/>
		<polygon opacity="0.6111" fill="#959699" points="86.839,90.923 73.755,77.842 53.25,98.346 32.745,77.842 19.661,90.923 
			40.167,111.429 19.661,131.934 32.745,145.017 53.25,124.512 73.755,145.017 86.839,131.934 66.333,111.429 		"/>
		<polygon opacity="0.6296" fill="#929496" points="86.839,90.479 73.755,77.397 53.25,97.901 32.745,77.397 19.661,90.479 
			40.167,110.984 19.661,131.489 32.745,144.572 53.25,124.067 73.755,144.572 86.839,131.489 66.333,110.984 		"/>
		<polygon opacity="0.6481" fill="#8F9193" points="86.839,90.034 73.755,76.953 53.25,97.457 32.745,76.953 19.661,90.034 
			40.167,110.54 19.661,131.044 32.745,144.127 53.25,123.623 73.755,144.127 86.839,131.044 66.333,110.54 		"/>
		<polygon opacity="0.6667" fill="#8C8E90" points="86.839,89.59 73.755,76.509 53.25,97.013 32.745,76.509 19.661,89.59 
			40.167,110.095 19.661,130.6 32.745,143.683 53.25,123.178 73.755,143.683 86.839,130.6 66.333,110.095 		"/>
		<polygon opacity="0.6852" fill="#898B8D" points="86.839,89.146 73.755,76.064 53.25,96.568 32.745,76.064 19.661,89.146 
			40.167,109.651 19.661,130.156 32.745,143.239 53.25,122.734 73.755,143.239 86.839,130.156 66.333,109.651 		"/>
		<polygon opacity="0.7037" fill="#86888A" points="86.839,88.701 73.755,75.62 53.25,96.124 32.745,75.62 19.661,88.701 
			40.167,109.207 19.661,129.711 32.745,142.794 53.25,122.29 73.755,142.794 86.839,129.711 66.333,109.207 		"/>
		<polygon opacity="0.7222" fill="#838587" points="86.839,88.256 73.755,75.175 53.25,95.679 32.745,75.175 19.661,88.256 
			40.167,108.762 19.661,129.267 32.745,142.35 53.25,121.845 73.755,142.35 86.839,129.267 66.333,108.762 		"/>
		<polygon opacity="0.7407" fill="#808284" points="86.839,87.812 73.755,74.731 53.25,95.235 32.745,74.731 19.661,87.812 
			40.167,108.317 19.661,128.822 32.745,141.905 53.25,121.4 73.755,141.905 86.839,128.822 66.333,108.317 		"/>
		<polygon opacity="0.7593" fill="#7E7F82" points="86.839,87.368 73.755,74.287 53.25,94.791 32.745,74.287 19.661,87.368 
			40.167,107.873 19.661,128.378 32.745,141.461 53.25,120.956 73.755,141.461 86.839,128.378 66.333,107.873 		"/>
		<polygon opacity="0.7778" fill="#7B7C7F" points="86.839,86.923 73.755,73.842 53.25,94.346 32.745,73.842 19.661,86.923 
			40.167,107.429 19.661,127.934 32.745,141.017 53.25,120.512 73.755,141.017 86.839,127.934 66.333,107.429 		"/>
		<polygon opacity="0.7963" fill="#78797C" points="86.839,86.479 73.755,73.397 53.25,93.901 32.745,73.397 19.661,86.479 
			40.167,106.984 19.661,127.489 32.745,140.572 53.25,120.067 73.755,140.572 86.839,127.489 66.333,106.984 		"/>
		<polygon opacity="0.8148" fill="#757679" points="86.839,86.034 73.755,72.953 53.25,93.457 32.745,72.953 19.661,86.034 
			40.167,106.54 19.661,127.044 32.745,140.127 53.25,119.623 73.755,140.127 86.839,127.044 66.333,106.54 		"/>
		<polygon opacity="0.8333" fill="#727376" points="86.839,85.59 73.755,72.509 53.25,93.013 32.745,72.509 19.661,85.59 
			40.167,106.095 19.661,126.6 32.745,139.683 53.25,119.178 73.755,139.683 86.839,126.6 66.333,106.095 		"/>
		<polygon opacity="0.8519" fill="#6F7073" points="86.839,85.146 73.755,72.064 53.25,92.568 32.745,72.064 19.661,85.146 
			40.167,105.651 19.661,126.156 32.745,139.239 53.25,118.734 73.755,139.239 86.839,126.156 66.333,105.651 		"/>
		<polygon opacity="0.8704" fill="#6C6D70" points="86.839,84.701 73.755,71.62 53.25,92.124 32.745,71.62 19.661,84.701 
			40.167,105.207 19.661,125.711 32.745,138.794 53.25,118.29 73.755,138.794 86.839,125.711 66.333,105.207 		"/>
		<polygon opacity="0.8889" fill="#696B6D" points="86.839,84.256 73.755,71.175 53.25,91.679 32.745,71.175 19.661,84.256 
			40.167,104.762 19.661,125.267 32.745,138.35 53.25,117.845 73.755,138.35 86.839,125.267 66.333,104.762 		"/>
		<polygon opacity="0.9074" fill="#66686A" points="86.839,83.812 73.755,70.731 53.25,91.235 32.745,70.731 19.661,83.812 
			40.167,104.317 19.661,124.822 32.745,137.905 53.25,117.4 73.755,137.905 86.839,124.822 66.333,104.317 		"/>
		<polygon opacity="0.9259" fill="#646567" points="86.839,83.368 73.755,70.287 53.25,90.791 32.745,70.287 19.661,83.368 
			40.167,103.873 19.661,124.378 32.745,137.461 53.25,116.956 73.755,137.461 86.839,124.378 66.333,103.873 		"/>
		<polygon opacity="0.9444" fill="#616264" points="86.839,82.923 73.755,69.842 53.25,90.346 32.745,69.842 19.661,82.923 
			40.167,103.429 19.661,123.934 32.745,137.017 53.25,116.512 73.755,137.017 86.839,123.934 66.333,103.429 		"/>
		<polygon opacity="0.963" fill="#5E5F61" points="86.839,82.479 73.755,69.397 53.25,89.901 32.745,69.397 19.661,82.479 
			40.167,102.984 19.661,123.489 32.745,136.572 53.25,116.067 73.755,136.572 86.839,123.489 66.333,102.984 		"/>
		<polygon opacity="0.9815" fill="#5B5C5E" points="86.839,82.034 73.755,68.953 53.25,89.457 32.745,68.953 19.661,82.034 
			40.167,102.54 19.661,123.044 32.745,136.127 53.25,115.623 73.755,136.127 86.839,123.044 66.333,102.54 		"/>
		<g>
			<g>
				<polygon fill="#58595B" points="86.839,81.59 73.755,68.509 53.25,89.013 32.745,68.509 19.661,81.59 40.167,102.095 
					19.661,122.6 32.745,135.683 53.25,115.178 73.755,135.683 86.839,122.6 66.333,102.095 				"/>
			</g>
		</g>
	</g>
	<g>
		<g>
			<polygon fill="#FFFFFF" points="86.839,81.59 73.755,68.509 53.25,89.013 32.745,68.509 19.661,81.59 40.167,102.095 
				19.661,122.6 32.745,135.683 53.25,115.178 73.755,135.683 86.839,122.6 66.333,102.095 			"/>
		</g>
	</g>
</g>
</svg>
